<?xml version="1.0" encoding="UTF-8" standalone="no"?>
<!-- Created with Inkscape (http://www.inkscape.org/) -->

<svg
   xmlns:dc="http://purl.org/dc/elements/1.1/"
   xmlns:cc="http://creativecommons.org/ns#"
   xmlns:rdf="http://www.w3.org/1999/02/22-rdf-syntax-ns#"
   xmlns:svg="http://www.w3.org/2000/svg"
   xmlns="http://www.w3.org/2000/svg"
   xmlns:sodipodi="http://sodipodi.sourceforge.net/DTD/sodipodi-0.dtd"
   xmlns:inkscape="http://www.inkscape.org/namespaces/inkscape"
   width="15"
   height="15"
   viewBox="0 0 15 15"
   id="svg2"
   version="1.1"
   inkscape:version="0.91 r13725"
   sodipodi:docname="search.svg">
  <defs
     id="defs4" />
  <sodipodi:namedview
     id="base"
     pagecolor="#ffffff"
     bordercolor="#666666"
     borderopacity="1.0"
     inkscape:pageopacity="0.0"
     inkscape:pageshadow="2"
     inkscape:zoom="19.869701"
     inkscape:cx="12.367543"
     inkscape:cy="8.4050168"
     inkscape:document-units="px"
     inkscape:current-layer="layer1"
     showgrid="false"
     inkscape:window-width="1920"
     inkscape:window-height="1012"
     inkscape:window-x="-8"
     inkscape:window-y="-8"
     inkscape:window-maximized="1"
     units="px" />
  <metadata
     id="metadata7">
    <rdf:RDF>
      <cc:Work
         rdf:about="">
        <dc:format>image/svg+xml</dc:format>
        <dc:type
           rdf:resource="http://purl.org/dc/dcmitype/StillImage" />
        <dc:title></dc:title>
      </cc:Work>
    </rdf:RDF>
  </metadata>
  <g
     inkscape:label="Layer 1"
     inkscape:groupmode="layer"
     id="layer1"
     transform="translate(0,-1037.3622)">
    <g
       id="g3434"
       style="fill:#747474;fill-opacity:1">
      <path
         id="path3379"
         transform="translate(0,1037.3622)"
         d="M 5.5 0 A 5.5 5.5 0 0 0 0 5.5 A 5.5 5.5 0 0 0 5.5 11 A 5.5 5.5 0 0 0 11 5.5 A 5.5 5.5 0 0 0 5.5 0 z M 5.5 1.5 A 4 4 0 0 1 9.5 5.5 A 4 4 0 0 1 5.5 9.5 A 4 4 0 0 1 1.5 5.5 A 4 4 0 0 1 5.5 1.5 z "
         style="fill:#747474;stroke-width:20;stroke-miterlimit:4;stroke-dasharray:none;fill-opacity:1" />
      <g
         transform="matrix(0.70710678,-0.70710678,0.70710678,0.70710678,-738.53975,317.73025)"
         id="g3417"
         style="fill:#747474;fill-opacity:1">
        <rect
           style="fill:#747474;stroke-width:20;stroke-miterlimit:4;stroke-dasharray:none;fill-opacity:1"
           id="rect3396"
           width="2"
           height="8"
           x="12.385578"
           y="1043.3284" />
        <rect
           style="fill:#747474;stroke-width:20;stroke-miterlimit:4;stroke-dasharray:none;fill-opacity:1"
           id="rect3396-9"
           width="3"
           height="5.5"
           x="11.885578"
           y="1044.5784" />
      </g>
    </g>
  </g>
</svg>
